<svg width="290" height="102" viewBox="0 0 290 102" fill="none" xmlns="http://www.w3.org/2000/svg">
<path d="M0.540364 41.0351C1.27923 47.5116 1.95746 53.5734 2.70644 59.5864C2.9862 61.8559 4.22971 62.0207 5.46762 62.1479C11.3049 62.6811 17.1518 63.6364 22.9428 63.6758C45.176 63.8538 67.4125 63.8774 89.6269 63.7501C113.469 63.5775 137.315 63.2503 161.144 62.8101C175.429 62.5708 189.674 61.8753 203.954 61.5983C221.414 61.2418 238.889 60.9984 256.367 60.9472C262.641 60.916 268.974 61.6463 275.266 61.9205C277.277 62.0117 279.284 61.7184 281.267 61.6211C282.113 59.4182 282.042 57.1568 281.844 54.9138C281.646 52.6709 281.219 50.4615 280.856 47.9732C282.502 47.3475 283.808 46.6947 285.177 46.302C286.4 45.9693 286.995 45.0737 286.852 43.2078C286.692 40.6899 286.678 38.1119 286.289 35.6274C285.757 32.1626 285.366 28.6002 284.246 25.3753C283.742 25.295 283.429 25.1097 283.181 25.1845C271.353 29.1077 259.113 30.2033 246.779 30.658C234.058 31.1307 221.313 31.2604 208.573 31.4278C192.751 31.6222 176.906 31.6658 161.078 31.8225C147.371 31.9387 133.67 32.0926 119.949 32.288C107.494 32.4522 95.034 32.5788 82.618 33.007C72.0076 33.3638 61.4137 33.8338 50.9025 34.8692C34.8463 36.4839 18.8529 38.7056 2.82094 40.6634C2.28754 40.7413 1.73417 40.8607 0.540364 41.0351Z" fill="#FEFF8B"/>
</svg>
